<mxfile modified="2019-12-10T06:50:40.203Z" host="www.draw.io" agent="Mozilla/5.0 (Windows NT 6.1; Win64; x64) AppleWebKit/537.36 (KHTML, like Gecko) Chrome/78.0.3904.108 Safari/537.36" etag="rSOlVYZBeSdt-2V_Zax9" version="12.3.9" type="github" pages="1">
  <diagram id="fIqRrQ5pbafK5gHmHEuw" name="Page-1">
    <mxGraphModel dx="1346" dy="739" grid="1" gridSize="10" guides="1" tooltips="1" connect="1" arrows="1" fold="1" page="1" pageScale="1" pageWidth="827" pageHeight="1169" math="0" shadow="0">
      <root>
        <mxCell id="0"/>
        <mxCell id="1" parent="0"/>
        <mxCell id="tpZ0usnBtLV4rIkdhi2c-45" value="国际站" style="rounded=1;whiteSpace=wrap;html=1;verticalAlign=top;fontStyle=1;fontSize=17;dashed=1;" parent="1" vertex="1">
          <mxGeometry x="415" y="538" width="445" height="262" as="geometry"/>
        </mxCell>
        <mxCell id="tpZ0usnBtLV4rIkdhi2c-81" value="" style="rounded=1;whiteSpace=wrap;html=1;fontSize=14;strokeColor=#6c8ebf;fillColor=#dae8fc;" parent="1" vertex="1">
          <mxGeometry x="467.5" y="567.5" width="248" height="139" as="geometry"/>
        </mxCell>
        <mxCell id="tpZ0usnBtLV4rIkdhi2c-46" value="中国站" style="rounded=1;whiteSpace=wrap;html=1;verticalAlign=top;fontStyle=1;fontSize=17;dashed=1;" parent="1" vertex="1">
          <mxGeometry x="430" y="50" width="430" height="430" as="geometry"/>
        </mxCell>
        <mxCell id="tpZ0usnBtLV4rIkdhi2c-80" value="" style="rounded=1;whiteSpace=wrap;html=1;fontSize=14;strokeColor=#6c8ebf;fillColor=#dae8fc;" parent="1" vertex="1">
          <mxGeometry x="472" y="331" width="248" height="139" as="geometry"/>
        </mxCell>
        <mxCell id="tpZ0usnBtLV4rIkdhi2c-79" value="" style="rounded=1;whiteSpace=wrap;html=1;fontSize=14;strokeColor=#6c8ebf;fillColor=#dae8fc;" parent="1" vertex="1">
          <mxGeometry x="472" y="171" width="248" height="139" as="geometry"/>
        </mxCell>
        <mxCell id="tpZ0usnBtLV4rIkdhi2c-5" value="LB" style="rounded=0;whiteSpace=wrap;html=1;" parent="1" vertex="1">
          <mxGeometry x="499" y="187" width="50" height="110" as="geometry"/>
        </mxCell>
        <mxCell id="tpZ0usnBtLV4rIkdhi2c-6" value="静态服务器(VM)&lt;br&gt;（Nginx）" style="rounded=0;whiteSpace=wrap;html=1;" parent="1" vertex="1">
          <mxGeometry x="562" y="186" width="120" height="47" as="geometry"/>
        </mxCell>
        <mxCell id="tpZ0usnBtLV4rIkdhi2c-17" value="" style="edgeStyle=orthogonalEdgeStyle;rounded=0;orthogonalLoop=1;jettySize=auto;html=1;entryX=0;entryY=0.5;entryDx=0;entryDy=0;fillColor=#d5e8d4;strokeColor=#82b366;" parent="1" source="tpZ0usnBtLV4rIkdhi2c-7" target="tpZ0usnBtLV4rIkdhi2c-11" edge="1">
          <mxGeometry relative="1" as="geometry">
            <mxPoint x="762" y="274.5" as="targetPoint"/>
          </mxGeometry>
        </mxCell>
        <mxCell id="tpZ0usnBtLV4rIkdhi2c-31" value="" style="edgeStyle=orthogonalEdgeStyle;rounded=0;orthogonalLoop=1;jettySize=auto;html=1;entryX=0;entryY=0.5;entryDx=0;entryDy=0;fillColor=#d5e8d4;strokeColor=#82b366;" parent="1" source="tpZ0usnBtLV4rIkdhi2c-7" target="tpZ0usnBtLV4rIkdhi2c-20" edge="1">
          <mxGeometry relative="1" as="geometry">
            <mxPoint x="762" y="274.5" as="targetPoint"/>
          </mxGeometry>
        </mxCell>
        <mxCell id="tpZ0usnBtLV4rIkdhi2c-33" value="" style="edgeStyle=orthogonalEdgeStyle;rounded=0;orthogonalLoop=1;jettySize=auto;html=1;entryX=0;entryY=0.5;entryDx=0;entryDy=0;fillColor=#d5e8d4;strokeColor=#82b366;" parent="1" source="tpZ0usnBtLV4rIkdhi2c-7" target="tpZ0usnBtLV4rIkdhi2c-18" edge="1">
          <mxGeometry relative="1" as="geometry">
            <mxPoint x="762" y="274.5" as="targetPoint"/>
          </mxGeometry>
        </mxCell>
        <mxCell id="tpZ0usnBtLV4rIkdhi2c-7" value="CF2.0" style="rounded=0;whiteSpace=wrap;html=1;" parent="1" vertex="1">
          <mxGeometry x="562" y="251" width="120" height="47" as="geometry"/>
        </mxCell>
        <mxCell id="tpZ0usnBtLV4rIkdhi2c-8" value="Silvan&lt;br&gt;（中国站）" style="rounded=0;whiteSpace=wrap;html=1;" parent="1" vertex="1">
          <mxGeometry x="697" y="103" width="90" height="47" as="geometry"/>
        </mxCell>
        <mxCell id="tpZ0usnBtLV4rIkdhi2c-9" value="CBC&lt;br&gt;(中国站)" style="rounded=0;whiteSpace=wrap;html=1;" parent="1" vertex="1">
          <mxGeometry x="502" y="103.5" width="90" height="47" as="geometry"/>
        </mxCell>
        <mxCell id="tpZ0usnBtLV4rIkdhi2c-10" value="IAM&lt;br&gt;&lt;b&gt;&lt;font color=&quot;#cc0000&quot;&gt;（中国站？？）&lt;/font&gt;&lt;/b&gt;" style="rounded=0;whiteSpace=wrap;html=1;" parent="1" vertex="1">
          <mxGeometry x="600" y="103.5" width="90" height="47" as="geometry"/>
        </mxCell>
        <mxCell id="tpZ0usnBtLV4rIkdhi2c-11" value="Region1&lt;br&gt;Cloud Service" style="rounded=0;whiteSpace=wrap;html=1;fillColor=#fff2cc;strokeColor=#d6b656;" parent="1" vertex="1">
          <mxGeometry x="900" y="166.5" width="120" height="43" as="geometry"/>
        </mxCell>
        <mxCell id="tpZ0usnBtLV4rIkdhi2c-12" value="LB" style="rounded=0;whiteSpace=wrap;html=1;" parent="1" vertex="1">
          <mxGeometry x="500" y="345.5" width="50" height="110" as="geometry"/>
        </mxCell>
        <mxCell id="tpZ0usnBtLV4rIkdhi2c-13" value="静态服务器(VM)&lt;br&gt;（Nginx）" style="rounded=0;whiteSpace=wrap;html=1;" parent="1" vertex="1">
          <mxGeometry x="562" y="342.5" width="120" height="47" as="geometry"/>
        </mxCell>
        <mxCell id="tpZ0usnBtLV4rIkdhi2c-37" value="" style="edgeStyle=orthogonalEdgeStyle;rounded=0;orthogonalLoop=1;jettySize=auto;html=1;fillColor=#f8cecc;strokeColor=#b85450;" parent="1" source="tpZ0usnBtLV4rIkdhi2c-14" target="tpZ0usnBtLV4rIkdhi2c-21" edge="1">
          <mxGeometry relative="1" as="geometry">
            <mxPoint x="762" y="436" as="targetPoint"/>
          </mxGeometry>
        </mxCell>
        <mxCell id="tpZ0usnBtLV4rIkdhi2c-14" value="CF2.0" style="rounded=0;whiteSpace=wrap;html=1;" parent="1" vertex="1">
          <mxGeometry x="562" y="411.5" width="120" height="47" as="geometry"/>
        </mxCell>
        <mxCell id="tpZ0usnBtLV4rIkdhi2c-18" value="Region2&lt;br&gt;Cloud Service" style="rounded=0;whiteSpace=wrap;html=1;fillColor=#fff2cc;strokeColor=#d6b656;" parent="1" vertex="1">
          <mxGeometry x="900" y="229.5" width="120" height="43" as="geometry"/>
        </mxCell>
        <mxCell id="tpZ0usnBtLV4rIkdhi2c-19" value="Reion3&lt;br&gt;Cloud Service" style="rounded=0;whiteSpace=wrap;html=1;fillColor=#fff2cc;strokeColor=#d6b656;" parent="1" vertex="1">
          <mxGeometry x="900" y="290" width="120" height="43" as="geometry"/>
        </mxCell>
        <mxCell id="tpZ0usnBtLV4rIkdhi2c-20" value="Region4&lt;br&gt;Cloud Service" style="rounded=0;whiteSpace=wrap;html=1;fillColor=#fff2cc;strokeColor=#d6b656;" parent="1" vertex="1">
          <mxGeometry x="900" y="350.5" width="120" height="43" as="geometry"/>
        </mxCell>
        <mxCell id="tpZ0usnBtLV4rIkdhi2c-21" value="Region5&lt;br&gt;Cloud Service" style="rounded=0;whiteSpace=wrap;html=1;fillColor=#fff2cc;strokeColor=#d6b656;" parent="1" vertex="1">
          <mxGeometry x="900" y="413.5" width="120" height="43" as="geometry"/>
        </mxCell>
        <mxCell id="tpZ0usnBtLV4rIkdhi2c-23" value="Region6&lt;br&gt;Cloud Service" style="rounded=0;whiteSpace=wrap;html=1;fillColor=#fff2cc;strokeColor=#d6b656;" parent="1" vertex="1">
          <mxGeometry x="927" y="584" width="120" height="43" as="geometry"/>
        </mxCell>
        <mxCell id="tpZ0usnBtLV4rIkdhi2c-24" value="Region7&lt;br&gt;Cloud Service" style="rounded=0;whiteSpace=wrap;html=1;fillColor=#fff2cc;strokeColor=#d6b656;" parent="1" vertex="1">
          <mxGeometry x="927" y="645" width="120" height="43" as="geometry"/>
        </mxCell>
        <mxCell id="tpZ0usnBtLV4rIkdhi2c-25" value="Reion8&lt;br&gt;Cloud Service" style="rounded=0;whiteSpace=wrap;html=1;fillColor=#fff2cc;strokeColor=#d6b656;" parent="1" vertex="1">
          <mxGeometry x="927" y="707.5" width="120" height="43" as="geometry"/>
        </mxCell>
        <mxCell id="tpZ0usnBtLV4rIkdhi2c-26" value="LB" style="rounded=0;whiteSpace=wrap;html=1;" parent="1" vertex="1">
          <mxGeometry x="497" y="578.5" width="50" height="115" as="geometry"/>
        </mxCell>
        <mxCell id="tpZ0usnBtLV4rIkdhi2c-27" value="静态服务器(VM)&lt;br&gt;（Nginx）" style="rounded=0;whiteSpace=wrap;html=1;" parent="1" vertex="1">
          <mxGeometry x="562" y="578.5" width="120" height="47" as="geometry"/>
        </mxCell>
        <mxCell id="tpZ0usnBtLV4rIkdhi2c-42" value="" style="edgeStyle=orthogonalEdgeStyle;rounded=0;orthogonalLoop=1;jettySize=auto;html=1;entryX=0;entryY=0.5;entryDx=0;entryDy=0;fillColor=#dae8fc;strokeColor=#6c8ebf;" parent="1" source="tpZ0usnBtLV4rIkdhi2c-28" target="tpZ0usnBtLV4rIkdhi2c-25" edge="1">
          <mxGeometry relative="1" as="geometry">
            <mxPoint x="762" y="667" as="targetPoint"/>
          </mxGeometry>
        </mxCell>
        <mxCell id="tpZ0usnBtLV4rIkdhi2c-28" value="CF2.0" style="rounded=0;whiteSpace=wrap;html=1;" parent="1" vertex="1">
          <mxGeometry x="562" y="643.5" width="120" height="47" as="geometry"/>
        </mxCell>
        <mxCell id="tpZ0usnBtLV4rIkdhi2c-38" value="Silvan&lt;br&gt;（国际站）" style="rounded=0;whiteSpace=wrap;html=1;" parent="1" vertex="1">
          <mxGeometry x="662.5" y="729" width="90" height="47" as="geometry"/>
        </mxCell>
        <mxCell id="tpZ0usnBtLV4rIkdhi2c-39" value="CBC&lt;br&gt;(国际站)" style="rounded=0;whiteSpace=wrap;html=1;" parent="1" vertex="1">
          <mxGeometry x="467.5" y="729.5" width="90" height="47" as="geometry"/>
        </mxCell>
        <mxCell id="tpZ0usnBtLV4rIkdhi2c-40" value="IAM&lt;br&gt;&lt;b&gt;&lt;font color=&quot;#cc0000&quot;&gt;（国际站？？）&lt;/font&gt;&lt;/b&gt;" style="rounded=0;whiteSpace=wrap;html=1;" parent="1" vertex="1">
          <mxGeometry x="565.5" y="729.5" width="90" height="47" as="geometry"/>
        </mxCell>
        <mxCell id="tpZ0usnBtLV4rIkdhi2c-51" value="" style="edgeStyle=orthogonalEdgeStyle;rounded=0;orthogonalLoop=1;jettySize=auto;html=1;entryX=0;entryY=0.5;entryDx=0;entryDy=0;exitX=1;exitY=0.5;exitDx=0;exitDy=0;fillColor=#dae8fc;strokeColor=#6c8ebf;" parent="1" source="tpZ0usnBtLV4rIkdhi2c-28" target="tpZ0usnBtLV4rIkdhi2c-24" edge="1">
          <mxGeometry relative="1" as="geometry">
            <mxPoint x="692" y="677" as="sourcePoint"/>
            <mxPoint x="910" y="690" as="targetPoint"/>
          </mxGeometry>
        </mxCell>
        <mxCell id="tpZ0usnBtLV4rIkdhi2c-52" value="" style="edgeStyle=orthogonalEdgeStyle;rounded=0;orthogonalLoop=1;jettySize=auto;html=1;entryX=0;entryY=0.5;entryDx=0;entryDy=0;exitX=1;exitY=0.5;exitDx=0;exitDy=0;fillColor=#dae8fc;strokeColor=#6c8ebf;" parent="1" source="tpZ0usnBtLV4rIkdhi2c-28" target="tpZ0usnBtLV4rIkdhi2c-23" edge="1">
          <mxGeometry relative="1" as="geometry">
            <mxPoint x="692" y="677" as="sourcePoint"/>
            <mxPoint x="910" y="629" as="targetPoint"/>
          </mxGeometry>
        </mxCell>
        <mxCell id="tpZ0usnBtLV4rIkdhi2c-53" value="" style="endArrow=classic;html=1;fontSize=17;exitX=1;exitY=0.5;exitDx=0;exitDy=0;entryX=0;entryY=0.25;entryDx=0;entryDy=0;edgeStyle=orthogonalEdgeStyle;rounded=0;fillColor=#d5e8d4;strokeColor=#82b366;" parent="1" source="tpZ0usnBtLV4rIkdhi2c-7" target="tpZ0usnBtLV4rIkdhi2c-23" edge="1">
          <mxGeometry width="50" height="50" relative="1" as="geometry">
            <mxPoint x="1050" y="530" as="sourcePoint"/>
            <mxPoint x="1100" y="480" as="targetPoint"/>
            <Array as="points">
              <mxPoint x="790" y="275"/>
              <mxPoint x="790" y="595"/>
            </Array>
          </mxGeometry>
        </mxCell>
        <mxCell id="tpZ0usnBtLV4rIkdhi2c-54" value="" style="endArrow=classic;html=1;fontSize=17;exitX=1;exitY=0.5;exitDx=0;exitDy=0;entryX=0;entryY=0.5;entryDx=0;entryDy=0;edgeStyle=orthogonalEdgeStyle;rounded=0;fillColor=#d5e8d4;strokeColor=#82b366;" parent="1" source="tpZ0usnBtLV4rIkdhi2c-7" target="tpZ0usnBtLV4rIkdhi2c-19" edge="1">
          <mxGeometry width="50" height="50" relative="1" as="geometry">
            <mxPoint x="1120" y="340" as="sourcePoint"/>
            <mxPoint x="1170" y="290" as="targetPoint"/>
          </mxGeometry>
        </mxCell>
        <mxCell id="tpZ0usnBtLV4rIkdhi2c-56" value="" style="endArrow=classic;html=1;fontSize=17;entryX=0;entryY=0.75;entryDx=0;entryDy=0;exitX=1;exitY=0.5;exitDx=0;exitDy=0;edgeStyle=orthogonalEdgeStyle;rounded=0;fillColor=#dae8fc;strokeColor=#6c8ebf;" parent="1" source="tpZ0usnBtLV4rIkdhi2c-28" target="tpZ0usnBtLV4rIkdhi2c-21" edge="1">
          <mxGeometry width="50" height="50" relative="1" as="geometry">
            <mxPoint x="940" y="550" as="sourcePoint"/>
            <mxPoint x="990" y="500" as="targetPoint"/>
            <Array as="points">
              <mxPoint x="800" y="667"/>
              <mxPoint x="800" y="446"/>
            </Array>
          </mxGeometry>
        </mxCell>
        <mxCell id="tpZ0usnBtLV4rIkdhi2c-57" value="" style="endArrow=classic;html=1;fontSize=17;exitX=0.5;exitY=0.5;exitDx=0;exitDy=0;exitPerimeter=0;entryX=0;entryY=0.5;entryDx=0;entryDy=0;" parent="1" source="tpZ0usnBtLV4rIkdhi2c-82" target="tpZ0usnBtLV4rIkdhi2c-45" edge="1">
          <mxGeometry width="50" height="50" relative="1" as="geometry">
            <mxPoint x="105" y="372.5" as="sourcePoint"/>
            <mxPoint x="400" y="630" as="targetPoint"/>
          </mxGeometry>
        </mxCell>
        <mxCell id="tpZ0usnBtLV4rIkdhi2c-58" value="console-intl.huaweicloud.com" style="text;html=1;align=center;verticalAlign=middle;resizable=0;points=[];;labelBackgroundColor=#ffffff;fontSize=14;fontStyle=0" parent="tpZ0usnBtLV4rIkdhi2c-57" vertex="1" connectable="0">
          <mxGeometry x="-0.1238" y="-1" relative="1" as="geometry">
            <mxPoint as="offset"/>
          </mxGeometry>
        </mxCell>
        <mxCell id="tpZ0usnBtLV4rIkdhi2c-82" value="国际站&lt;br&gt;注册用户" style="shape=umlActor;verticalLabelPosition=bottom;labelBackgroundColor=#ffffff;verticalAlign=top;html=1;outlineConnect=0;fontSize=14;" parent="1" vertex="1">
          <mxGeometry x="180" y="639" width="30" height="60" as="geometry"/>
        </mxCell>
        <mxCell id="tpZ0usnBtLV4rIkdhi2c-84" value="" style="endArrow=classic;html=1;fontSize=17;exitX=0.5;exitY=0.5;exitDx=0;exitDy=0;exitPerimeter=0;entryX=0;entryY=0.5;entryDx=0;entryDy=0;" parent="1" source="tpZ0usnBtLV4rIkdhi2c-86" target="tpZ0usnBtLV4rIkdhi2c-5" edge="1">
          <mxGeometry width="50" height="50" relative="1" as="geometry">
            <mxPoint x="115" y="-61.5" as="sourcePoint"/>
            <mxPoint x="425" y="235" as="targetPoint"/>
          </mxGeometry>
        </mxCell>
        <mxCell id="tpZ0usnBtLV4rIkdhi2c-85" value="console.huaweicloud.com" style="text;html=1;align=center;verticalAlign=middle;resizable=0;points=[];;labelBackgroundColor=#ffffff;fontSize=14;fontStyle=0" parent="tpZ0usnBtLV4rIkdhi2c-84" vertex="1" connectable="0">
          <mxGeometry x="-0.1238" y="-1" relative="1" as="geometry">
            <mxPoint as="offset"/>
          </mxGeometry>
        </mxCell>
        <mxCell id="tpZ0usnBtLV4rIkdhi2c-86" value="中国站&lt;br&gt;注册用户" style="shape=umlActor;verticalLabelPosition=bottom;labelBackgroundColor=#ffffff;verticalAlign=top;html=1;outlineConnect=0;fontSize=14;" parent="1" vertex="1">
          <mxGeometry x="190" y="212" width="30" height="60" as="geometry"/>
        </mxCell>
        <mxCell id="tpZ0usnBtLV4rIkdhi2c-87" value="" style="endArrow=classic;html=1;fontSize=14;exitX=0.5;exitY=0.5;exitDx=0;exitDy=0;exitPerimeter=0;entryX=0;entryY=0.5;entryDx=0;entryDy=0;edgeStyle=orthogonalEdgeStyle;rounded=0;" parent="1" source="tpZ0usnBtLV4rIkdhi2c-86" target="tpZ0usnBtLV4rIkdhi2c-12" edge="1">
          <mxGeometry width="50" height="50" relative="1" as="geometry">
            <mxPoint x="380" y="420" as="sourcePoint"/>
            <mxPoint x="430" y="370" as="targetPoint"/>
          </mxGeometry>
        </mxCell>
        <mxCell id="tpZ0usnBtLV4rIkdhi2c-88" value="region5-console.huaweicloud.com" style="text;html=1;align=center;verticalAlign=middle;resizable=0;points=[];;labelBackgroundColor=#ffffff;fontSize=14;" parent="tpZ0usnBtLV4rIkdhi2c-87" vertex="1" connectable="0">
          <mxGeometry x="-0.2622" y="-2" relative="1" as="geometry">
            <mxPoint x="-18" y="159.5" as="offset"/>
          </mxGeometry>
        </mxCell>
        <mxCell id="tpZ0usnBtLV4rIkdhi2c-95" value="国际站" style="rounded=1;whiteSpace=wrap;html=1;verticalAlign=top;fontStyle=1;fontSize=17;dashed=1;" parent="1" vertex="1">
          <mxGeometry x="1761" y="608" width="355" height="192" as="geometry"/>
        </mxCell>
        <mxCell id="tpZ0usnBtLV4rIkdhi2c-96" value="" style="rounded=1;whiteSpace=wrap;html=1;fontSize=14;strokeColor=#6c8ebf;fillColor=#dae8fc;" parent="1" vertex="1">
          <mxGeometry x="1813.5" y="637.5" width="248" height="139" as="geometry"/>
        </mxCell>
        <mxCell id="tpZ0usnBtLV4rIkdhi2c-97" value="中国站" style="rounded=1;whiteSpace=wrap;html=1;verticalAlign=top;fontStyle=1;fontSize=17;dashed=1;" parent="1" vertex="1">
          <mxGeometry x="1776" y="190" width="320" height="360" as="geometry"/>
        </mxCell>
        <mxCell id="tpZ0usnBtLV4rIkdhi2c-98" value="" style="rounded=1;whiteSpace=wrap;html=1;fontSize=14;strokeColor=#6c8ebf;fillColor=#dae8fc;" parent="1" vertex="1">
          <mxGeometry x="1818" y="401" width="248" height="139" as="geometry"/>
        </mxCell>
        <mxCell id="tpZ0usnBtLV4rIkdhi2c-99" value="" style="rounded=1;whiteSpace=wrap;html=1;fontSize=14;strokeColor=#6c8ebf;fillColor=#dae8fc;" parent="1" vertex="1">
          <mxGeometry x="1818" y="241" width="248" height="139" as="geometry"/>
        </mxCell>
        <mxCell id="tpZ0usnBtLV4rIkdhi2c-100" value="LB" style="rounded=0;whiteSpace=wrap;html=1;" parent="1" vertex="1">
          <mxGeometry x="1845" y="257" width="50" height="110" as="geometry"/>
        </mxCell>
        <mxCell id="tpZ0usnBtLV4rIkdhi2c-101" value="静态服务器(VM)&lt;br&gt;（Nginx）" style="rounded=0;whiteSpace=wrap;html=1;fillColor=#f8cecc;strokeColor=#b85450;" parent="1" vertex="1">
          <mxGeometry x="1908" y="256" width="120" height="47" as="geometry"/>
        </mxCell>
        <mxCell id="tpZ0usnBtLV4rIkdhi2c-105" value="CF2.0" style="rounded=0;whiteSpace=wrap;html=1;" parent="1" vertex="1">
          <mxGeometry x="1908" y="321" width="120" height="47" as="geometry"/>
        </mxCell>
        <mxCell id="tpZ0usnBtLV4rIkdhi2c-110" value="LB" style="rounded=0;whiteSpace=wrap;html=1;" parent="1" vertex="1">
          <mxGeometry x="1846" y="415.5" width="50" height="110" as="geometry"/>
        </mxCell>
        <mxCell id="tpZ0usnBtLV4rIkdhi2c-111" value="静态服务器(VM)&lt;br&gt;（Nginx）" style="rounded=0;whiteSpace=wrap;html=1;fillColor=#f8cecc;strokeColor=#b85450;" parent="1" vertex="1">
          <mxGeometry x="1908" y="412.5" width="120" height="47" as="geometry"/>
        </mxCell>
        <mxCell id="tpZ0usnBtLV4rIkdhi2c-113" value="CF2.0" style="rounded=0;whiteSpace=wrap;html=1;" parent="1" vertex="1">
          <mxGeometry x="1908" y="481.5" width="120" height="47" as="geometry"/>
        </mxCell>
        <mxCell id="tpZ0usnBtLV4rIkdhi2c-121" value="LB" style="rounded=0;whiteSpace=wrap;html=1;" parent="1" vertex="1">
          <mxGeometry x="1843" y="648.5" width="50" height="115" as="geometry"/>
        </mxCell>
        <mxCell id="tpZ0usnBtLV4rIkdhi2c-122" value="静态服务器(VM)&lt;br&gt;（Nginx）" style="rounded=0;whiteSpace=wrap;html=1;fillColor=#f8cecc;strokeColor=#b85450;" parent="1" vertex="1">
          <mxGeometry x="1908" y="648.5" width="120" height="47" as="geometry"/>
        </mxCell>
        <mxCell id="tpZ0usnBtLV4rIkdhi2c-124" value="CF2.0" style="rounded=0;whiteSpace=wrap;html=1;" parent="1" vertex="1">
          <mxGeometry x="1908" y="713.5" width="120" height="47" as="geometry"/>
        </mxCell>
        <mxCell id="tpZ0usnBtLV4rIkdhi2c-135" value="国际站&lt;br&gt;注册用户" style="shape=umlActor;verticalLabelPosition=bottom;labelBackgroundColor=#ffffff;verticalAlign=top;html=1;outlineConnect=0;fontSize=14;" parent="1" vertex="1">
          <mxGeometry x="1330" y="674" width="30" height="60" as="geometry"/>
        </mxCell>
        <mxCell id="tpZ0usnBtLV4rIkdhi2c-138" value="中国站&lt;br&gt;注册用户" style="shape=umlActor;verticalLabelPosition=bottom;labelBackgroundColor=#ffffff;verticalAlign=top;html=1;outlineConnect=0;fontSize=14;" parent="1" vertex="1">
          <mxGeometry x="1315" y="252" width="30" height="60" as="geometry"/>
        </mxCell>
        <mxCell id="tpZ0usnBtLV4rIkdhi2c-144" value="CDN" style="rounded=1;whiteSpace=wrap;html=1;fontSize=14;fontStyle=1;verticalAlign=top;" parent="1" vertex="1">
          <mxGeometry x="1510" y="190" width="210" height="240" as="geometry"/>
        </mxCell>
        <mxCell id="tpZ0usnBtLV4rIkdhi2c-145" value="CDN+OBS&lt;br&gt;&lt;br&gt;&lt;br&gt;&lt;br&gt;" style="rounded=1;whiteSpace=wrap;html=1;fontSize=14;fontStyle=1;verticalAlign=middle;" parent="1" vertex="1">
          <mxGeometry x="1510" y="526" width="210" height="153" as="geometry"/>
        </mxCell>
        <mxCell id="tpZ0usnBtLV4rIkdhi2c-146" value="console-static.huaweicloud.om" style="rounded=0;whiteSpace=wrap;html=1;fontSize=14;fillColor=#d5e8d4;strokeColor=#82b366;" parent="1" vertex="1">
          <mxGeometry x="1520" y="226" width="190" height="45" as="geometry"/>
        </mxCell>
        <mxCell id="tpZ0usnBtLV4rIkdhi2c-147" value="region5-console-static.huaweicloud.om" style="rounded=0;whiteSpace=wrap;html=1;fontSize=14;fillColor=#d5e8d4;strokeColor=#82b366;" parent="1" vertex="1">
          <mxGeometry x="1520" y="288" width="190" height="45" as="geometry"/>
        </mxCell>
        <mxCell id="tpZ0usnBtLV4rIkdhi2c-149" value="console-intl-static.huaweicloud.om" style="rounded=0;whiteSpace=wrap;html=1;fontSize=14;fillColor=#d5e8d4;strokeColor=#82b366;" parent="1" vertex="1">
          <mxGeometry x="1520" y="349.5" width="190" height="45" as="geometry"/>
        </mxCell>
        <mxCell id="tpZ0usnBtLV4rIkdhi2c-150" value="" style="endArrow=classic;html=1;fontSize=14;exitX=0.5;exitY=0.5;exitDx=0;exitDy=0;exitPerimeter=0;entryX=0;entryY=0.5;entryDx=0;entryDy=0;edgeStyle=orthogonalEdgeStyle;strokeColor=#6c8ebf;rounded=0;fillColor=#dae8fc;" parent="1" source="tpZ0usnBtLV4rIkdhi2c-135" target="tpZ0usnBtLV4rIkdhi2c-149" edge="1">
          <mxGeometry width="50" height="50" relative="1" as="geometry">
            <mxPoint x="1450" y="650" as="sourcePoint"/>
            <mxPoint x="1500" y="600" as="targetPoint"/>
          </mxGeometry>
        </mxCell>
        <mxCell id="tpZ0usnBtLV4rIkdhi2c-151" value="" style="endArrow=classic;html=1;fontSize=14;exitX=1;exitY=0.5;exitDx=0;exitDy=0;entryX=0;entryY=0.5;entryDx=0;entryDy=0;edgeStyle=orthogonalEdgeStyle;strokeColor=#6c8ebf;rounded=0;fillColor=#dae8fc;" parent="1" source="tpZ0usnBtLV4rIkdhi2c-149" target="tpZ0usnBtLV4rIkdhi2c-95" edge="1">
          <mxGeometry width="50" height="50" relative="1" as="geometry">
            <mxPoint x="1750" y="570" as="sourcePoint"/>
            <mxPoint x="1800" y="520" as="targetPoint"/>
          </mxGeometry>
        </mxCell>
        <mxCell id="tpZ0usnBtLV4rIkdhi2c-152" value="" style="endArrow=classic;html=1;fontSize=14;exitX=0.5;exitY=0.5;exitDx=0;exitDy=0;exitPerimeter=0;entryX=0;entryY=0.5;entryDx=0;entryDy=0;edgeStyle=orthogonalEdgeStyle;strokeColor=#b85450;rounded=0;fillColor=#f8cecc;" parent="1" source="tpZ0usnBtLV4rIkdhi2c-138" target="tpZ0usnBtLV4rIkdhi2c-147" edge="1">
          <mxGeometry width="50" height="50" relative="1" as="geometry">
            <mxPoint x="1310" y="500" as="sourcePoint"/>
            <mxPoint x="1360" y="450" as="targetPoint"/>
          </mxGeometry>
        </mxCell>
        <mxCell id="tpZ0usnBtLV4rIkdhi2c-153" value="" style="endArrow=classic;html=1;fontSize=14;exitX=0.5;exitY=0.5;exitDx=0;exitDy=0;exitPerimeter=0;entryX=0;entryY=0.5;entryDx=0;entryDy=0;edgeStyle=orthogonalEdgeStyle;strokeColor=#82b366;rounded=0;fillColor=#d5e8d4;" parent="1" source="tpZ0usnBtLV4rIkdhi2c-138" target="tpZ0usnBtLV4rIkdhi2c-146" edge="1">
          <mxGeometry width="50" height="50" relative="1" as="geometry">
            <mxPoint x="1360" y="400" as="sourcePoint"/>
            <mxPoint x="1410" y="350" as="targetPoint"/>
          </mxGeometry>
        </mxCell>
        <mxCell id="tpZ0usnBtLV4rIkdhi2c-154" value="" style="endArrow=classic;html=1;fontSize=14;exitX=1;exitY=0.5;exitDx=0;exitDy=0;entryX=0;entryY=0.5;entryDx=0;entryDy=0;edgeStyle=orthogonalEdgeStyle;strokeColor=#82b366;rounded=0;fillColor=#d5e8d4;" parent="1" source="tpZ0usnBtLV4rIkdhi2c-146" target="tpZ0usnBtLV4rIkdhi2c-99" edge="1">
          <mxGeometry width="50" height="50" relative="1" as="geometry">
            <mxPoint x="2130" y="400" as="sourcePoint"/>
            <mxPoint x="2180" y="350" as="targetPoint"/>
          </mxGeometry>
        </mxCell>
        <mxCell id="tpZ0usnBtLV4rIkdhi2c-155" value="" style="endArrow=classic;html=1;fontSize=14;exitX=1;exitY=0.5;exitDx=0;exitDy=0;entryX=0;entryY=0.5;entryDx=0;entryDy=0;edgeStyle=orthogonalEdgeStyle;strokeColor=#b85450;rounded=0;fillColor=#f8cecc;" parent="1" source="tpZ0usnBtLV4rIkdhi2c-147" target="tpZ0usnBtLV4rIkdhi2c-98" edge="1">
          <mxGeometry width="50" height="50" relative="1" as="geometry">
            <mxPoint x="2270" y="480" as="sourcePoint"/>
            <mxPoint x="2320" y="430" as="targetPoint"/>
          </mxGeometry>
        </mxCell>
        <mxCell id="tpZ0usnBtLV4rIkdhi2c-156" value="" style="endArrow=classic;html=1;strokeColor=#d6b656;fontSize=14;exitX=0.5;exitY=0;exitDx=0;exitDy=0;exitPerimeter=0;entryX=0;entryY=0.5;entryDx=0;entryDy=0;fillColor=#fff2cc;edgeStyle=orthogonalEdgeStyle;rounded=0;" parent="1" source="tpZ0usnBtLV4rIkdhi2c-135" target="tpZ0usnBtLV4rIkdhi2c-145" edge="1">
          <mxGeometry width="50" height="50" relative="1" as="geometry">
            <mxPoint x="1600" y="760" as="sourcePoint"/>
            <mxPoint x="1650" y="710" as="targetPoint"/>
            <Array as="points">
              <mxPoint x="1345" y="602"/>
            </Array>
          </mxGeometry>
        </mxCell>
        <mxCell id="tpZ0usnBtLV4rIkdhi2c-157" value="" style="endArrow=classic;html=1;strokeColor=#d6b656;fontSize=14;exitX=1;exitY=1;exitDx=0;exitDy=0;exitPerimeter=0;entryX=0;entryY=0.5;entryDx=0;entryDy=0;fillColor=#fff2cc;edgeStyle=orthogonalEdgeStyle;rounded=0;" parent="1" source="tpZ0usnBtLV4rIkdhi2c-138" target="tpZ0usnBtLV4rIkdhi2c-145" edge="1">
          <mxGeometry width="50" height="50" relative="1" as="geometry">
            <mxPoint x="1440" y="520" as="sourcePoint"/>
            <mxPoint x="1490" y="470" as="targetPoint"/>
          </mxGeometry>
        </mxCell>
        <mxCell id="tpZ0usnBtLV4rIkdhi2c-158" value="res.huaweicloud.com&lt;br&gt;/xxx/v1" style="text;html=1;align=center;verticalAlign=middle;resizable=0;points=[];;autosize=1;fontSize=14;" parent="1" vertex="1">
          <mxGeometry x="1284" y="479" width="150" height="40" as="geometry"/>
        </mxCell>
        <mxCell id="tpZ0usnBtLV4rIkdhi2c-159" value="&lt;span style=&quot;color: rgba(0 , 0 , 0 , 0) ; font-family: monospace ; font-size: 0px&quot;&gt;%3CmxGraphModel%3E%3Croot%3E%3CmxCell%20id%3D%220%22%2F%3E%3CmxCell%20id%3D%221%22%20parent%3D%220%22%2F%3E%3CmxCell%20id%3D%222%22%20value%3D%22res.huaweicloud.com%2Fxxx%2Fv1%22%20style%3D%22text%3Bhtml%3D1%3Balign%3Dcenter%3BverticalAlign%3Dmiddle%3Bresizable%3D0%3Bpoints%3D%5B%5D%3B%3Bautosize%3D1%3BfontSize%3D14%3B%22%20vertex%3D%221%22%20parent%3D%221%22%3E%3CmxGeometry%20x%3D%221264%22%20y%3D%22489%22%20width%3D%22190%22%20height%3D%2220%22%20as%3D%22geometry%22%2F%3E%3C%2FmxCell%3E%3C%2Froot%3E%3C%2FmxGraphModel%3E&lt;/span&gt;" style="text;html=1;align=center;verticalAlign=middle;resizable=0;points=[];;autosize=1;fontSize=14;" parent="1" vertex="1">
          <mxGeometry x="1339" y="628" width="20" height="30" as="geometry"/>
        </mxCell>
        <mxCell id="tpZ0usnBtLV4rIkdhi2c-160" value="res.huaweicloud.com&lt;br&gt;/xxx/v2" style="text;html=1;align=center;verticalAlign=middle;resizable=0;points=[];;autosize=1;fontSize=14;" parent="1" vertex="1">
          <mxGeometry x="1270" y="613" width="150" height="40" as="geometry"/>
        </mxCell>
        <mxCell id="tpZ0usnBtLV4rIkdhi2c-161" value="res.hc-cdn.com" style="rounded=0;whiteSpace=wrap;html=1;fontSize=14;fillColor=#d5e8d4;strokeColor=#82b366;" parent="1" vertex="1">
          <mxGeometry x="1522" y="605" width="190" height="45" as="geometry"/>
        </mxCell>
      </root>
    </mxGraphModel>
  </diagram>
</mxfile>
